<?xml version="1.0" standalone="no"?><!DOCTYPE svg PUBLIC "-//W3C//DTD SVG 1.1//EN" "http://www.w3.org/Graphics/SVG/1.1/DTD/svg11.dtd"><svg t="1670836947900" class="icon" viewBox="0 0 1024 1024" version="1.1" xmlns="http://www.w3.org/2000/svg" p-id="8352" xmlns:xlink="http://www.w3.org/1999/xlink" width="200" height="200"><path d="M842 561.3h-90.19a6.52 6.52 0 0 1-6.52-6.5v-74.29a21.51 21.51 0 1 0-43 0v74.29a49.59 49.59 0 0 0 49.53 49.52H842a21.51 21.51 0 0 0 0-43z" p-id="8353"></path><path d="M734.26 372.68h-146.5v-86.43a64.59 64.59 0 0 0-64.52-64.52H134.45a64.59 64.59 0 0 0-64.52 64.52v430.58a64.6 64.6 0 0 0 64.52 64.53h67.66c0 1-0.3 1.95-0.3 3a96.88 96.88 0 0 0 193.76 0c0-1-0.27-2-0.3-3h128a63.69 63.69 0 0 0 28-6.65 21.37 21.37 0 0 0 15.44 6.65h83.18c0 1-0.3 1.95-0.3 3a96.88 96.88 0 0 0 193.76 0c0-1-0.27-2-0.3-3h89.32a21.51 21.51 0 0 0 21.51-21.51V592.24c-0.06-121.07-98.56-219.56-219.62-219.56zM298.69 838.2a53.86 53.86 0 1 1 53.86-53.87 53.93 53.93 0 0 1-53.86 53.87z m246.06-121.37a21.54 21.54 0 0 1-21.51 21.51H383.42c-16.44-30.14-48-50.88-84.73-50.88S230.4 708.2 214 738.34h-79.55A21.53 21.53 0 0 1 113 716.83V286.25a21.53 21.53 0 0 1 21.5-21.51h388.74a21.54 21.54 0 0 1 21.51 21.51zM746.41 838.2a53.86 53.86 0 1 1 53.86-53.87 53.94 53.94 0 0 1-53.86 53.87z m164.4-99.86h-79.67c-16.44-30.14-48-50.88-84.73-50.88s-68.3 20.74-84.74 50.88h-73.51V415.7h146.1c97.35 0 176.55 79.19 176.55 176.54z" p-id="8354"></path></svg>