<?xml version="1.0" standalone="no"?><!DOCTYPE svg PUBLIC "-//W3C//DTD SVG 1.1//EN" "http://www.w3.org/Graphics/SVG/1.1/DTD/svg11.dtd"><svg t="1669966937752" class="icon" viewBox="0 0 1024 1024" version="1.1" xmlns="http://www.w3.org/2000/svg" p-id="39823" xmlns:xlink="http://www.w3.org/1999/xlink" width="200" height="200"><path d="M1024 0v1024H0V0h1024z m-128 128H128v768h768V128z" p-id="39824"></path><path d="M512 256a256 256 0 1 1 0 512 256 256 0 0 1 0-512z m0 128a128 128 0 1 0 0 256 128 128 0 0 0 0-256z" p-id="39825"></path><path d="M916.224 22.4L598.272 339.2l90.304 90.688 317.952-316.8zM112.64 22.4L430.464 339.2 340.224 429.888 22.272 113.088zM916.224 1005.888l-317.952-316.8 90.304-90.624 317.952 316.8zM112.64 1005.888l317.888-316.8-90.304-90.624L22.272 915.2z" p-id="39826"></path></svg>