<?xml version="1.0" standalone="no"?><!DOCTYPE svg PUBLIC "-//W3C//DTD SVG 1.1//EN" "http://www.w3.org/Graphics/SVG/1.1/DTD/svg11.dtd"><svg t="1687327619044" class="icon" viewBox="0 0 1024 1024" version="1.1" xmlns="http://www.w3.org/2000/svg" p-id="1893" xmlns:xlink="http://www.w3.org/1999/xlink" width="200" height="200"><path d="M56.888889 355.498667L668.444444 967.111111H561.038222L62.293333 468.366222 56.888889 473.770667V355.498667z m0 230.001777L438.499556 967.111111H333.482667L56.888889 690.460444v-104.96z m28.103111-455.111111l808.618667 808.618667a165.091556 165.091556 0 0 1-92.387556 28.103111h-10.183111L56.888889 232.903111v-10.126222c0-34.190222 10.353778-65.991111 28.103111-92.387556z m-27.648 683.178667l153.031111 153.088a165.944889 165.944889 0 0 1-153.031111-153.088zM239.729778 56.888889L967.111111 784.213333v17.009778c0 25.884444-5.916444 50.403556-16.497778 72.248889L150.471111 73.386667c21.845333-10.581333 46.364444-16.497778 72.248889-16.497778h16.952889z m227.555555 0L967.111111 556.657778V676.977778L346.965333 56.888889h120.32z m217.258667 0L967.111111 339.342222v110.023111L574.577778 56.888889h109.966222z m116.679111 0A165.888 165.888 0 0 1 967.111111 222.776889v9.329778L791.836444 56.888889h9.386667z" p-id="1894"></path></svg>