<?xml version="1.0" standalone="no"?><!DOCTYPE svg PUBLIC "-//W3C//DTD SVG 1.1//EN" "http://www.w3.org/Graphics/SVG/1.1/DTD/svg11.dtd"><svg t="1669709525532" class="icon" viewBox="0 0 1092 1024" version="1.1" xmlns="http://www.w3.org/2000/svg" p-id="3971" xmlns:xlink="http://www.w3.org/1999/xlink" width="213.28125" height="200"><path d="M573.30448 390.444067l-126.546365 73.254046a51.094697 51.094697 0 0 1-76.733614-44.318698v-146.508092a51.094697 51.094697 0 0 1 76.733614-44.318698l126.546365 73.254046a51.094697 51.094697 0 0 1 0 88.637396z" fill="#fff" p-id="3972"></path><path d="M509.756595 869.342395a41.205401 41.205401 0 0 0-41.571671 40.930698v30.491997h-25.272646V827.862291h50.362156a41.205401 41.205401 0 0 0 0-82.410802H224.340517a142.021282 142.021282 0 0 1-123.982474-73.254046h352.535098a41.205401 41.205401 0 0 0 0-82.410803H82.410802V224.340517A142.11285 142.11285 0 0 1 224.340517 82.410802h501.973352a142.11285 142.11285 0 0 1 141.929715 141.929715v46.424752a41.205401 41.205401 0 0 0 82.410802 0v-48.805509-1.739783a224.61522 224.61522 0 0 0-224.340517-219.762139H224.340517A224.61522 224.61522 0 0 0 0 224.798355v379.089689a224.61522 224.61522 0 0 0 224.340517 224.340517h136.527229v113.360637h-75.817938a41.205401 41.205401 0 0 0 0 82.410802h224.706787a41.205401 41.205401 0 0 0 41.205401-41.205401v-3.571135V910.273093a41.205401 41.205401 0 0 0-41.205401-40.930698z" fill="#fff" p-id="3973"></path><path d="M953.49298 635.570419A121.143879 121.143879 0 1 0 832.349101 756.714298a121.327014 121.327014 0 0 0 121.143879-121.143879z m-159.876956 0a38.733077 38.733077 0 1 1 38.733077 38.733077 38.824645 38.824645 0 0 1-38.275239-38.733077z" fill="#fff" p-id="3974"></path><path d="M955.690602 863.848341a259.319324 259.319324 0 1 0-245.767326 0A259.868729 259.868729 0 0 0 608.649557 961.459358a41.205401 41.205401 0 0 0 35.61978 61.991237h377.075204a41.205401 41.205401 0 0 0 35.61978-61.991237 259.868729 259.868729 0 0 0-101.273719-97.611017zM655.80685 635.570419a176.908522 176.908522 0 1 1 176.908522 176.908522 177.091657 177.091657 0 0 1-176.908522-176.908522z m84.699991 305.469374a176.084414 176.084414 0 0 1 184.417061 0H740.598408z" fill="#fff" p-id="3975"></path></svg>