<?xml version="1.0" standalone="no"?><!DOCTYPE svg PUBLIC "-//W3C//DTD SVG 1.1//EN" "http://www.w3.org/Graphics/SVG/1.1/DTD/svg11.dtd"><svg t="1681787462194" class="icon" viewBox="0 0 1024 1024" version="1.1" xmlns="http://www.w3.org/2000/svg" p-id="41443" xmlns:xlink="http://www.w3.org/1999/xlink" width="200" height="200"><path d="M432.3 926.3h-128l-62.5-178.8V440.3h228V551H355v100.4h115.7l-93 137.9 54.6 137z m-109.9-25.6h72.2L349 786.2 422.5 677h-93.2V525.4h114.8V466H267.3v279.3l55.1 155.4zM719.8 926.3H591.7l54.5-137-92.9-137.9H669V551H554.3V440.3h228l-0.7 311.4-61.8 174.6z m-90.3-25.6h72.2l55-155.4V466H579.9v59.4h114.8V677h-93.2l73.6 109.1-45.6 114.6zM644.3 277.8H361.2V97.7h283.1v180.1z m-257.5-25.7h231.8V123.3H386.8v128.8z" p-id="41444"></path><path d="M782.3 466H241.7V252.1h540.6V466z m-515-25.7h489.3V277.8H267.3v162.5z" p-id="41445"></path></svg>