<?xml version="1.0" standalone="no"?><!DOCTYPE svg PUBLIC "-//W3C//DTD SVG 1.1//EN" "http://www.w3.org/Graphics/SVG/1.1/DTD/svg11.dtd"><svg t="1681787452558" class="icon" viewBox="0 0 1024 1024" version="1.1" xmlns="http://www.w3.org/2000/svg" p-id="41304" xmlns:xlink="http://www.w3.org/1999/xlink" width="200" height="200"><path d="M656.2 280.9H367.8V97.7h288.4v183.2z m-262.8-25.6h237.1v-132H393.4v132z" p-id="41305"></path><path d="M212 926.3L96.7 866.1l27.9-191 111.9-214.9V255.3h551.1v205.5l113.2 218.3L927.3 866 812 926.2l-15.4-149.5-148.9-80.6 104.5-54.5-47.7-91.3-103.8 54.2-52-99.6 61.2-32H414.1l61.2 32-52 99.6-103.8-54.2-47.7 91.3 104.5 54.5-148.9 80.6L212 926.3z m490.2-229.7l118.4 64.1 12.9 125.4 65.8-34.4L875.7 685 751.6 447.4h10.3V280.9H262.1v166.4h10.3L148.3 685l-23.7 166.8 65.8 34.4 12.9-125.4 118.4-64.1-84.5-44.1 71.4-136.7L412.5 570l28.3-54.2-131-68.4h404.5l-131 68.4 28.3 54.2 103.8-54.2 71.4 136.7-84.6 44.1z" p-id="41306"></path><path d="M251.3 447.4h523.5V473H251.3z" p-id="41307"></path></svg>