<?xml version="1.0" standalone="no"?><!DOCTYPE svg PUBLIC "-//W3C//DTD SVG 1.1//EN" "http://www.w3.org/Graphics/SVG/1.1/DTD/svg11.dtd"><svg t="1669877505316" class="icon" viewBox="0 0 1024 1024" version="1.1" xmlns="http://www.w3.org/2000/svg" p-id="3132" xmlns:xlink="http://www.w3.org/1999/xlink" width="200" height="200"><path d="M832 357.888c5.76 4.8 10.88 10.624 14.848 17.536l161.984 280.576c9.792 16.896 10.88 36.416 4.864 53.44a50.56 50.56 0 0 1-19.328 51.008l-247.168 183.616a22.592 22.592 0 0 1-28.8-1.6 19.712 19.712 0 0 1-1.728-27.136l174.208-207.616-97.216-168.32C770.624 561.92 738.944 576 704 576H570.432l-31.488 364.544a25.664 25.664 0 0 1-25.6 23.424 25.856 25.856 0 0 1-25.728-23.424L453.888 576H320a127.36 127.36 0 0 1-72.96-22.784l-97.856 169.472 165.248 196.864a19.712 19.712 0 0 1-1.728 27.136 22.592 22.592 0 0 1-28.8 1.6L36.736 764.672a50.56 50.56 0 0 1-16.96-58.88 63.744 63.744 0 0 1 8.512-29.632L192 392.576V352A224 224 0 0 1 416 128H448V64a64 64 0 1 1 128 0v64h32A224 224 0 0 1 832 352v5.888zM512 384a64 64 0 1 0 0-128 64 64 0 0 0 0 128z" p-id="3133"></path></svg>