<?xml version="1.0" standalone="no"?><!DOCTYPE svg PUBLIC "-//W3C//DTD SVG 1.1//EN" "http://www.w3.org/Graphics/SVG/1.1/DTD/svg11.dtd"><svg t="1682406853682" class="icon" viewBox="0 0 1024 1024" version="1.1" xmlns="http://www.w3.org/2000/svg" p-id="1717" xmlns:xlink="http://www.w3.org/1999/xlink" width="200" height="200"><path d="M962.059947 170.922667H461.579947a37.973333 37.973333 0 0 0-38.912 38.912V749.226667a37.973333 37.973333 0 0 0 38.912 38.912h155.733333a136.96 136.96 0 0 1 133.461333-116.821334 132.778667 132.778667 0 0 1 133.461334 116.821334h77.824a37.973333 37.973333 0 0 0 38.912-38.912V209.834667a37.973333 37.973333 0 0 0-38.912-38.912z m-94.549334 266.922666a35.413333 35.413333 0 0 1 0 33.365334 30.549333 30.549333 0 0 1-27.818666 17.066666h-38.912l-38.912-72.277333 72.277333-38.912a606.378667 606.378667 0 0 1 33.365333 60.757333z m-238.933333-155.733333a29.781333 29.781333 0 0 1 22.272-17.066667h99.84a30.464 30.464 0 0 0-33.365333 22.272c-11.093333 17.066667-61.184 105.642667-61.184 105.642667l-72.277334-38.912s33.450667-55.210667 44.544-71.936zM584.118613 565.76l-50.090666-89.002667a24.832 24.832 0 0 1 0-27.818666l22.272-33.365334-27.818667-17.066666h83.456l38.912 72.277333-27.818667-17.066667-38.912 66.730667a61.354667 61.354667 0 0 0-0.170666 44.885333z m105.642667 11.093333h-72.277333a30.549333 30.549333 0 0 1-27.818667-17.066666 35.498667 35.498667 0 0 1 0-33.365334 164.352 164.352 0 0 0 17.066667-33.365333h83.456z m17.066667-250.282666a157.269333 157.269333 0 0 0 17.066666-33.365334 31.488 31.488 0 0 1 55.637334 0c5.546667 5.546667 11.093333 17.066667 17.066666 22.272l27.818667-17.066666-44.458667 72.277333h-83.456l27.818667-11.093333z m116.821333 233.557333a29.781333 29.781333 0 0 1-22.272 17.066667h-38.912v27.818666l-38.912-72.277333 38.912-72.277333v27.818666h77.824a30.464 30.464 0 0 0 33.365333-22.272z" p-id="1718"></path><path d="M344.843947 326.656H172.38528c-27.818667 0-38.912 17.066667-55.637333 38.912L33.291947 482.389333a143.786667 143.786667 0 0 0-33.28 77.482667v194.645333a37.973333 37.973333 0 0 0 38.912 38.912h38.912a137.216 137.216 0 0 1 133.461333-122.368A132.778667 132.778667 0 0 1 344.758613 787.882667a37.973333 37.973333 0 0 0 38.912-38.912v-384a37.973333 37.973333 0 0 0-38.912-38.912z m-72.362667 233.216H66.742613a48.042667 48.042667 0 0 1 17.066667-33.365333l83.456-110.933334s11.093333-11.093333 17.066667-11.093333h93.696v155.392z" p-id="1719"></path><path d="M211.467947 721.493333a89.002667 89.002667 0 1 0 89.002666 89.002667 87.808 87.808 0 0 0-89.002666-89.002667z m539.392 0a89.002667 89.002667 0 1 0 89.002666 89.002667 87.808 87.808 0 0 0-89.088-89.002667z" p-id="1720"></path></svg>